<svg width="22" height="26" viewBox="0 0 22 26" fill="none" xmlns="http://www.w3.org/2000/svg">
<path d="M10.9836 15.3366C11.7728 15.3366 12.4415 15.0647 12.9895 14.5211C13.5376 13.9775 13.8117 13.3398 13.8117 12.608C13.8117 11.8552 13.5376 11.2123 12.9895 10.6791C12.4415 10.146 11.7728 9.87937 10.9836 9.87937C10.1943 9.87937 9.52566 10.146 8.97758 10.6791C8.4295 11.2123 8.15546 11.8552 8.15546 12.608C8.15546 13.3398 8.4295 13.9775 8.97758 14.5211C9.52566 15.0647 10.1943 15.3366 10.9836 15.3366ZM5.52466 20.731H16.4425V19.8215C16.4425 19.2778 16.289 18.776 15.9821 18.316C15.6751 17.8561 15.2586 17.5215 14.7324 17.3124C14.1405 17.0824 13.5376 16.9047 12.9238 16.7793C12.3099 16.6538 11.6632 16.5911 10.9836 16.5911C10.3039 16.5911 9.6572 16.6538 9.04335 16.7793C8.4295 16.9047 7.83757 17.0824 7.26756 17.3124C6.71948 17.5215 6.29198 17.8561 5.98505 18.316C5.67813 18.776 5.52466 19.2778 5.52466 19.8215V20.731ZM19.3692 26H2.59791C1.89636 26 1.28799 25.7543 0.772795 25.263C0.257598 24.7716 0 24.1914 0 23.5223V2.50905C0 1.81906 0.257598 1.22839 0.772795 0.737033C1.28799 0.245678 1.89636 0 2.59791 0H12.7593C13.0882 0 13.4225 0.0731805 13.7623 0.219542C14.1021 0.365903 14.3926 0.554081 14.6338 0.784077L21.1779 7.02533C21.419 7.25533 21.6163 7.53237 21.7698 7.85645C21.9233 8.18054 22 8.4994 22 8.81303V23.5223C22 24.1914 21.7424 24.7716 21.2272 25.263C20.712 25.7543 20.0927 26 19.3692 26Z" fill="#8C89CE"/>
</svg>
