<svg width="20" height="20" viewBox="0 0 20 20" fill="none" xmlns="http://www.w3.org/2000/svg">
<path d="M2.36173 20C1.70404 20 1.14599 19.7905 0.687593 19.3716C0.229198 18.9526 0 18.4426 0 17.8415V7.37705C0 7.04918 0.0847034 6.73042 0.25411 6.42076C0.423518 6.11111 0.657698 5.8561 0.956651 5.65574L8.55007 0.437159C8.76931 0.291439 9.00349 0.18215 9.25262 0.10929C9.50174 0.03643 9.74589 0 9.98505 0C10.2441 0 10.4933 0.03643 10.7324 0.10929C10.9716 0.18215 11.2008 0.291439 11.42 0.437159L19.0135 5.65574C19.3124 5.8561 19.5516 6.11111 19.7309 6.42076C19.9103 6.73042 20 7.04918 20 7.37705V17.8415C20 18.4426 19.7658 18.9526 19.2975 19.3716C18.8291 19.7905 18.2661 20 17.6084 20H12.4664V11.8852H7.50374V20H2.36173Z" fill="#8C89CE"/>
</svg>
