<svg width="20" height="23" viewBox="0 0 20 23" fill="none" xmlns="http://www.w3.org/2000/svg">
<path d="M3.28084 23C2.37095 23 1.59668 22.6667 0.958005 22C0.319335 21.3333 0 20.5093 0 19.5278V17.5833C0 17.2685 0.100613 17.0046 0.301837 16.7917C0.503062 16.5787 0.761155 16.4722 1.07612 16.4722H3.51706V0.722222C3.51706 0.462963 3.60018 0.324074 3.7664 0.305555C3.93263 0.287037 4.10324 0.37037 4.27822 0.555556L5.19685 1.52778L6.45669 0.194444C6.56168 0.0648148 6.68417 0 6.82415 0C6.96413 0 7.09536 0.0648148 7.21785 0.194444L8.45144 1.52778L9.71129 0.194444C9.81627 0.0648148 9.94313 0 10.0919 0C10.2406 0 10.3762 0.0648148 10.4987 0.194444L11.7585 1.52778L12.9921 0.194444C13.0971 0.0648148 13.224 0 13.3727 0C13.5214 0 13.657 0.0648148 13.7795 0.194444L15.0394 1.52778L16.2992 0.194444C16.4042 0.0648148 16.5267 0 16.6667 0C16.8067 0 16.9379 0.0648148 17.0604 0.194444L18.3202 1.52778L19.2126 0.555556C19.3876 0.37037 19.5626 0.287037 19.7375 0.305555C19.9125 0.324074 20 0.472222 20 0.75V19.5278C20 20.5093 19.6807 21.3333 19.042 22C18.4033 22.6667 17.629 23 16.7192 23H3.28084ZM16.7192 20.7778C17.0341 20.7778 17.301 20.662 17.5197 20.4306C17.7384 20.1991 17.8478 19.8981 17.8478 19.5278V2.91667H5.64304V16.4722H14.5407C14.8381 16.4722 15.0875 16.5787 15.2887 16.7917C15.4899 17.0046 15.5906 17.2685 15.5906 17.5833V19.5278C15.5906 19.8981 15.6868 20.1991 15.8793 20.4306C16.0717 20.662 16.3517 20.7778 16.7192 20.7778ZM7.79528 7.33333C7.5853 7.33333 7.40595 7.25 7.25722 7.08333C7.10849 6.91667 7.03412 6.71296 7.03412 6.47222C7.03412 6.25 7.11286 6.06019 7.27034 5.90278C7.42782 5.74537 7.61155 5.66667 7.82152 5.66667H12.2835C12.4934 5.66667 12.6772 5.74537 12.8346 5.90278C12.9921 6.06019 13.0709 6.25926 13.0709 6.5C13.0709 6.74074 12.9921 6.93982 12.8346 7.09722C12.6772 7.25463 12.4934 7.33333 12.2835 7.33333H7.79528ZM7.79528 11.0556C7.5853 11.0556 7.40595 10.9722 7.25722 10.8056C7.10849 10.6389 7.03412 10.4352 7.03412 10.1944C7.03412 9.97222 7.11286 9.78241 7.27034 9.625C7.42782 9.46759 7.61155 9.38889 7.82152 9.38889H12.2835C12.4934 9.38889 12.6772 9.46759 12.8346 9.625C12.9921 9.78241 13.0709 9.98148 13.0709 10.2222C13.0709 10.463 12.9921 10.662 12.8346 10.8194C12.6772 10.9769 12.4934 11.0556 12.2835 11.0556H7.79528ZM15.5118 7.33333C15.3018 7.33333 15.1181 7.25 14.9606 7.08333C14.8032 6.91667 14.7244 6.72222 14.7244 6.5C14.7244 6.27778 14.8032 6.08333 14.9606 5.91667C15.1181 5.75 15.3018 5.66667 15.5118 5.66667C15.7218 5.66667 15.9055 5.75 16.063 5.91667C16.2205 6.08333 16.2992 6.27778 16.2992 6.5C16.2992 6.72222 16.2205 6.91667 16.063 7.08333C15.9055 7.25 15.7218 7.33333 15.5118 7.33333ZM15.5118 10.9167C15.3018 10.9167 15.1181 10.8333 14.9606 10.6667C14.8032 10.5 14.7244 10.3056 14.7244 10.0833C14.7244 9.86111 14.8032 9.66667 14.9606 9.5C15.1181 9.33333 15.3018 9.25 15.5118 9.25C15.7218 9.25 15.9055 9.33333 16.063 9.5C16.2205 9.66667 16.2992 9.86111 16.2992 10.0833C16.2992 10.3056 16.2205 10.5 16.063 10.6667C15.9055 10.8333 15.7218 10.9167 15.5118 10.9167Z" fill="#8C89CE"/>
</svg>
